<svg width="64" height="14" viewBox="0 0 64 14" fill="none" xmlns="http://www.w3.org/2000/svg">
<path d="M10.0557 3.59668L8.88672 4.08887C8.79557 3.79264 8.67253 3.52148 8.51758 3.27539C8.36719 3.0293 8.1849 2.81966 7.9707 2.64648C7.76107 2.46875 7.52181 2.33203 7.25293 2.23633C6.98405 2.13607 6.6901 2.08594 6.37109 2.08594C6.0293 2.08594 5.71484 2.1429 5.42773 2.25684C5.14518 2.36621 4.88997 2.51888 4.66211 2.71484C4.4388 2.91081 4.24284 3.13867 4.07422 3.39844C3.9056 3.6582 3.76432 3.9362 3.65039 4.23242C3.53646 4.52409 3.45215 4.82715 3.39746 5.1416C3.34277 5.45605 3.31543 5.76367 3.31543 6.06445C3.31543 6.54297 3.37012 7.01921 3.47949 7.49316C3.59342 7.96712 3.77116 8.39323 4.0127 8.77148C4.25879 9.14974 4.57552 9.45736 4.96289 9.69434C5.35026 9.92676 5.81966 10.043 6.37109 10.043C6.66276 10.043 6.93848 9.99512 7.19824 9.89941C7.45801 9.79915 7.69271 9.66471 7.90234 9.49609C8.11654 9.32292 8.30339 9.12012 8.46289 8.8877C8.6224 8.65527 8.75 8.40462 8.8457 8.13574L10.0283 8.60742C9.85514 9.04036 9.61816 9.4209 9.31738 9.74902C9.0166 10.0726 8.67253 10.3415 8.28516 10.5557C7.90234 10.7699 7.48991 10.9294 7.04785 11.0342C6.61035 11.1436 6.16829 11.1982 5.72168 11.1982C5.23861 11.1982 4.77376 11.139 4.32715 11.0205C3.88509 10.902 3.47266 10.7334 3.08984 10.5146C2.70703 10.2959 2.3584 10.0316 2.04395 9.72168C1.73405 9.41178 1.46745 9.06771 1.24414 8.68945C1.02539 8.3112 0.854492 7.90104 0.731445 7.45898C0.612956 7.01237 0.553711 6.54753 0.553711 6.06445C0.553711 5.58138 0.612956 5.11882 0.731445 4.67676C0.854492 4.23014 1.02539 3.81771 1.24414 3.43945C1.46745 3.05664 1.73405 2.71029 2.04395 2.40039C2.3584 2.09049 2.70703 1.82617 3.08984 1.60742C3.47266 1.38867 3.88509 1.22005 4.32715 1.10156C4.77376 0.983073 5.23861 0.923828 5.72168 0.923828C6.18652 0.923828 6.63997 0.978516 7.08203 1.08789C7.52865 1.19727 7.94336 1.36361 8.32617 1.58691C8.70898 1.80566 9.0485 2.08366 9.34473 2.4209C9.64551 2.75358 9.88249 3.14551 10.0557 3.59668ZM21.5737 6.29004V6.41992C21.5646 6.80273 21.5235 7.19922 21.4506 7.60938C21.3823 8.01953 21.2843 8.42969 21.1567 8.83984C21.0291 9.25 20.8764 9.6556 20.6987 10.0566C20.5209 10.4577 20.3204 10.8405 20.0971 11.2051C19.8784 11.5742 19.6414 11.9183 19.3862 12.2373C19.131 12.5609 18.8621 12.8457 18.5795 13.0918L17.561 12.5039C17.7205 12.235 17.864 11.9411 17.9916 11.6221C18.1238 11.3076 18.2423 10.9772 18.3471 10.6309C18.4519 10.2845 18.5408 9.92904 18.6137 9.56445C18.6912 9.19987 18.755 8.83757 18.8051 8.47754C18.8552 8.11751 18.8917 7.76432 18.9145 7.41797C18.9418 7.06706 18.9555 6.73438 18.9555 6.41992C18.9555 6.17383 18.9532 5.89583 18.9487 5.58594C18.9487 5.27148 18.9304 4.95247 18.894 4.62891C18.8621 4.30534 18.8074 3.99089 18.7299 3.68555C18.6524 3.37565 18.5362 3.09993 18.3813 2.8584C18.2309 2.61686 18.0349 2.42318 17.7934 2.27734C17.5564 2.13151 17.2602 2.05859 16.9047 2.05859C16.5903 2.05859 16.3191 2.11328 16.0913 2.22266C15.8679 2.32747 15.6765 2.47103 15.517 2.65332C15.3621 2.83105 15.2368 3.03841 15.1411 3.27539C15.0499 3.51237 14.977 3.76302 14.9223 4.02734C14.8722 4.28711 14.838 4.55143 14.8198 4.82031C14.8061 5.08464 14.7993 5.33529 14.7993 5.57227V7.47949H17.7455V8.60742H14.7993V11H12.0854V5.99609C12.0854 5.2806 12.1993 4.61523 12.4272 4C12.6551 3.38477 12.9763 2.85156 13.3911 2.40039C13.8103 1.94466 14.3116 1.58919 14.895 1.33398C15.4829 1.07422 16.1368 0.944336 16.8569 0.944336C17.3445 0.944336 17.8002 1.01497 18.2241 1.15625C18.6524 1.29297 19.0421 1.48438 19.393 1.73047C19.7439 1.97201 20.0561 2.26139 20.3295 2.59863C20.6075 2.93132 20.8377 3.2959 21.02 3.69238C21.2068 4.08887 21.3481 4.50814 21.4438 4.9502C21.5395 5.39225 21.5828 5.83887 21.5737 6.29004ZM26.618 11H23.9042V1.15625H30.9725V2.41406H26.618V5.45605H29.9813V6.70703H26.618V11ZM40.0228 11H32.9544V1.15625H40.0228V2.41406H35.6683V5.45605H39.0316V6.70703H35.6683V9.74219H40.0228V11ZM43.5222 11H42.2644V1.15625H44.0281L50.0095 7.91699V1.15625H51.2605V11H49.4968L43.5222 4.24609V11ZM63.4211 6.29004V6.41992C63.412 6.80273 63.371 7.19922 63.298 7.60938C63.2297 8.01953 63.1317 8.42969 63.0041 8.83984C62.8765 9.25 62.7238 9.6556 62.5461 10.0566C62.3684 10.4577 62.1678 10.8405 61.9445 11.2051C61.7258 11.5742 61.4888 11.9183 61.2336 12.2373C60.9784 12.5609 60.7095 12.8457 60.427 13.0918L59.4084 12.5039C59.5679 12.235 59.7115 11.9411 59.8391 11.6221C59.9712 11.3076 60.0897 10.9772 60.1945 10.6309C60.2993 10.2845 60.3882 9.92904 60.4611 9.56445C60.5386 9.19987 60.6024 8.83757 60.6525 8.47754C60.7027 8.11751 60.7391 7.76432 60.7619 7.41797C60.7893 7.06706 60.8029 6.73438 60.8029 6.41992C60.8029 6.17383 60.8007 5.89583 60.7961 5.58594C60.7961 5.27148 60.7779 4.95247 60.7414 4.62891C60.7095 4.30534 60.6548 3.99089 60.5773 3.68555C60.4999 3.37565 60.3837 3.09993 60.2287 2.8584C60.0783 2.61686 59.8824 2.42318 59.6408 2.27734C59.4038 2.13151 59.1076 2.05859 58.7521 2.05859C58.4377 2.05859 58.1665 2.11328 57.9387 2.22266C57.7154 2.32747 57.524 2.47103 57.3645 2.65332C57.2095 2.83105 57.0842 3.03841 56.9885 3.27539C56.8973 3.51237 56.8244 3.76302 56.7697 4.02734C56.7196 4.28711 56.6854 4.55143 56.6672 4.82031C56.6535 5.08464 56.6467 5.33529 56.6467 5.57227V7.47949H59.593V8.60742H56.6467V11H53.9328V5.99609C53.9328 5.2806 54.0467 4.61523 54.2746 4C54.5025 3.38477 54.8238 2.85156 55.2385 2.40039C55.6577 1.94466 56.159 1.58919 56.7424 1.33398C57.3303 1.07422 57.9842 0.944336 58.7043 0.944336C59.1919 0.944336 59.6477 1.01497 60.0715 1.15625C60.4999 1.29297 60.8895 1.48438 61.2404 1.73047C61.5913 1.97201 61.9035 2.26139 62.177 2.59863C62.4549 2.93132 62.6851 3.2959 62.8674 3.69238C63.0542 4.08887 63.1955 4.50814 63.2912 4.9502C63.3869 5.39225 63.4302 5.83887 63.4211 6.29004Z" fill="#1C1A1A"/>
</svg>
