<svg width="10" height="10" viewBox="0 0 10 10" fill="none" xmlns="http://www.w3.org/2000/svg">
<path d="M5.36249 9.90736C4.15699 9.90736 3.00103 9.42845 2.14862 8.57625C1.29643 7.72384 0.817505 6.56782 0.817505 5.36237C0.817505 4.15693 1.29642 3.00091 2.14862 2.1485C3.00103 1.29631 4.15705 0.817383 5.36249 0.817383C6.56794 0.817383 7.72396 1.29629 8.57637 2.1485C9.42856 3.00091 9.90749 4.15693 9.90749 5.36237C9.90749 6.56782 9.42857 7.72384 8.57637 8.57625C7.72396 9.42844 6.56794 9.90736 5.36249 9.90736ZM5.36249 3.08988C4.75977 3.08988 4.18188 3.32933 3.75556 3.75543C3.32946 4.18175 3.09 4.75965 3.09 5.36237C3.09 5.9651 3.32945 6.54299 3.75556 6.96931C4.18187 7.3954 4.75977 7.63487 5.36249 7.63487C5.96522 7.63487 6.54311 7.39542 6.96943 6.96931C7.39553 6.543 7.63499 5.9651 7.63499 5.36237C7.63499 4.75965 7.39554 4.18175 6.96943 3.75543C6.54312 3.32934 5.96522 3.08988 5.36249 3.08988Z" fill="#D48A5C"/>
</svg>
